<svg width="20" height="20" viewBox="0 0 20 20" fill="none" xmlns="http://www.w3.org/2000/svg">
<g id="Icon/Boat">
<path id="Vector" d="M10 3.75V1.875" stroke-width="1.5" stroke-linecap="round" stroke-linejoin="round"/>
<path id="Vector_2" d="M17.5 12.4999C16.3617 16.484 11.077 17.8765 10.1417 18.0936C10.0485 18.1153 9.95153 18.1153 9.85832 18.0936C8.92299 17.8765 3.63831 16.484 2.5 12.4999V9.82536C2.5 9.69418 2.54127 9.56633 2.61797 9.45991C2.69467 9.3535 2.80291 9.27391 2.92736 9.23243L9.80236 6.94076C9.93065 6.898 10.0694 6.898 10.1976 6.94076L17.0726 9.23243C17.1971 9.27391 17.3053 9.3535 17.382 9.45991C17.4587 9.56633 17.5 9.69418 17.5 9.82536V12.4999Z" stroke-width="1.5" stroke-linecap="round" stroke-linejoin="round"/>
<path id="Vector_3" d="M10 13.1249V6.90869" stroke-width="1.5" stroke-linecap="round" stroke-linejoin="round"/>
<path id="Vector_4" d="M4.375 8.75V4.375C4.375 4.20924 4.44085 4.05027 4.55806 3.93306C4.67527 3.81585 4.83424 3.75 5 3.75H15C15.1658 3.75 15.3247 3.81585 15.4419 3.93306C15.5592 4.05027 15.625 4.20924 15.625 4.375V8.75" stroke-width="1.5" stroke-linecap="round" stroke-linejoin="round"/>
</g>
</svg>
